<?xml version="1.0" encoding="utf-8"?>
<!-- Generator: Adobe Illustrator 21.0.0, SVG Export Plug-In . SVG Version: 6.00 Build 0)  -->
<svg version="1.1" id="Layer_1" xmlns="http://www.w3.org/2000/svg" xmlns:xlink="http://www.w3.org/1999/xlink" x="0px" y="0px"
	 viewBox="0 0 384.2 72" style="enable-background:new 0 0 384.2 72;" xml:space="preserve">
<style type="text/css">
	.st0{fill:#FFFFFF;}
</style>
<g>
	<path class="st0" d="M18.1,26.9H0v44.3h9.8V57.9h7.4c9.9,0,17.9-5.3,17.9-15.6v-0.1C35.1,33.2,28.7,26.9,18.1,26.9z M25.2,42.5
		c0,3.8-2.8,6.7-7.7,6.7H9.8V35.7h7.5c4.9,0,7.9,2.3,7.9,6.7V42.5z"/>
	<path class="st0" d="M91.9,41.7v-0.1c0-4.2-1.3-7.7-3.8-10.1c-2.9-2.9-7.3-4.5-12.9-4.5H55v44.3h9.8V57h7.7l9.5,14.2h11.4
		L82.4,55.4C88.1,53.3,91.9,48.8,91.9,41.7z M82.1,42.2c0,3.7-2.7,6.3-7.5,6.3h-9.9V35.7h9.7c4.7,0,7.7,2.2,7.7,6.3V42.2z"/>
	<path class="st0" d="M198,26.9h-18.1v44.3h9.8V57.9h7.4c9.9,0,17.9-5.3,17.9-15.6v-0.1C214.9,33.2,208.5,26.9,198,26.9z
		 M205.1,42.5c0,3.8-2.8,6.7-7.7,6.7h-7.7V35.7h7.5c4.9,0,7.9,2.3,7.9,6.7V42.5z"/>
	<polygon class="st0" points="262.6,44.4 244.6,44.4 244.6,26.9 234.8,26.9 234.8,71.2 244.6,71.2 244.6,53.4 262.6,53.4 
		262.6,71.2 272.3,71.2 272.3,26.9 262.6,26.9 	"/>
	<polygon class="st0" points="305.3,53.2 326.2,53.2 326.2,44.6 305.3,44.6 305.3,35.6 329,35.6 329,26.9 295.6,26.9 295.6,71.2 
		329.3,71.2 329.3,62.5 305.3,62.5 	"/>
	<polygon class="st0" points="347.5,26.9 347.5,35.9 361,35.9 361,71.2 370.8,71.2 370.8,35.9 384.2,35.9 384.2,26.9 	"/>
	<path class="st0" d="M121.6,49.1v-0.1c0-7.6,5.4-13.8,13.3-13.8c1.2,0,2.3,0.2,3.4,0.4l6.2-7.6c-2.8-1.2-6-1.8-9.5-1.8
		c-13.7,0-23.6,10.3-23.6,22.9v0.1c0,5.2,1.7,10.1,4.7,13.9l6.7-8.3C122,53.1,121.6,51.1,121.6,49.1z"/>
	<path class="st0" d="M148,46.1c0.2,1,0.3,2,0.3,3v0.1c0,7.6-5.4,13.8-13.3,13.8c-2.3,0-4.3-0.5-6.1-1.5l-7.8,6.3
		c3.8,2.6,8.5,4.2,13.8,4.2c13.7,0,23.6-10.3,23.6-22.9v-0.1c0-3.5-0.8-6.7-2.1-9.6L148,46.1z"/>
	<circle class="st0" cx="163.9" cy="20.2" r="6.9"/>
	<circle class="st0" cx="180.2" cy="3.9" r="3.9"/>
</g>
</svg>
